HIERARCHY
ROOT Hips
{
  OFFSET -0.610131 36.2543 94.4577
  CHANNELS 6 Xposition Yposition Zposition Zrotation Xrotation Yrotation
  JOINT LeftHip
  {
    OFFSET 3.43 0 0
    CHANNELS 3 Zrotation Xrotation Yrotation
    JOINT LeftKnee
    {
      OFFSET 0 -18.47 0
      CHANNELS 3 Zrotation Xrotation Yrotation
      JOINT LeftAnkle
      {
        OFFSET 0 -17.95 0
        CHANNELS 3 Zrotation Xrotation Yrotation
        End Site
        {
          OFFSET 0 -3.12 0
        }
      }
    }
  }
  JOINT RightHip
  {
    OFFSET -3.43 0 0
    CHANNELS 3 Zrotation Xrotation Yrotation
    JOINT RightKnee
    {
      OFFSET 0 -18.47 0
      CHANNELS 3 Zrotation Xrotation Yrotation
      JOINT RightAnkle
      {
        OFFSET 0 -17.95 0
        CHANNELS 3 Zrotation Xrotation Yrotation
        End Site
        {
          OFFSET 0 -3.12 0
        }
      }
    }
  }
  JOINT Chest
  {
    OFFSET 0 4.57 0
    CHANNELS 3 Zrotation Xrotation Yrotation
    JOINT CS_BVH
    {
      OFFSET 0 6.57 0
      CHANNELS 3 Zrotation Xrotation Yrotation
      JOINT LeftCollar
      {
        OFFSET 1.06 4.19 1.76
        CHANNELS 3 Zrotation Xrotation Yrotation
        JOINT LeftShoulder
        {
          OFFSET 5.81 0 0
          CHANNELS 3 Zrotation Xrotation Yrotation
          JOINT LeftElbow
          {
            OFFSET 0 -12.08 0
            CHANNELS 3 Zrotation Xrotation Yrotation
            JOINT LeftWrist
            {
              OFFSET 0 -9.82 0
              CHANNELS 3 Zrotation Xrotation Yrotation
              End Site
              {
                OFFSET 0 -7.37 0
              }
            }
          }
        }
      }
      JOINT RightCollar
      {
        OFFSET -1.06 4.19 1.76
        CHANNELS 3 Zrotation Xrotation Yrotation
        JOINT RightShoulder
        {
          OFFSET -6.06 0 0
          CHANNELS 3 Zrotation Xrotation Yrotation
          JOINT RightElbow
          {
            OFFSET 0 -11.08 0
            CHANNELS 3 Zrotation Xrotation Yrotation
            JOINT RightWrist
            {
              OFFSET 0 -9.82 0
              CHANNELS 3 Zrotation Xrotation Yrotation
              End Site
              {
                OFFSET 0 -7.14001 0
              }
            }
          }
        }
      }
      JOINT Neck
      {
        OFFSET 0 4.05 0
        CHANNELS 3 Zrotation Xrotation Yrotation
        JOINT Head
        {
          OFFSET 0 5.19 0
          CHANNELS 3 Zrotation Xrotation Yrotation
          End Site
          {
            OFFSET 0 4.14001 0
          }
        }
      }
    }
  }
}
MOTION
Frames:	7
Frame Time:	0.0333333
-4.02433 37.172 9.52562 6.33025 1.02129 0.986538 -6.19364 6.77451 -3.43669 0.0270844 44.2713 -0.0763294 -6.87276 -12.6017 -6.58975 1.13398 -35.0242 18.3545 0.0202464 52.2715 2.84278 3.73254 -20.759 -10.4395 -9.98207 6.82856 -1.21195 6.26631 -11.5137 -0.373304 10 -6.20208e-014 1.16786e-014 -5.91645 1.58927 -29.6353 13.236 -21.0104 4.11383 0.004587 0.0361098 0.48255 -10 -6.0033e-014 -9.0447e-015 2.78746 12.0941 24.2559 -9.72257 -15.7907 -2.94727 0.206126 -1.40353 14.1986 -5.64651 -11.3667 -5.35025 8.29267 28.0492 -11.2748 
-4.38267 37.1406 10.9412 4.01391 0.805052 2.14956 -1.64602 2.3317 -1.86811 0.0538361 52.7919 -0.67274 -5.57406 -2.54954 -8.50055 4.18014 -32.7656 18.3582 0.0186975 53.2739 2.18942 3.87386 -22.0104 -10.7523 -7.31972 7.40591 -1.9196 6.23203 -11.4496 -0.446316 10 -6.20208e-014 1.16786e-014 -5.58678 3.09816 -28.4899 12.8511 -20.4768 3.9351 0.00599086 -0.0135088 -0.180495 -10 -6.0033e-014 -9.0447e-015 2.90104 11.3619 23.4693 -9.52974 -15.5043 -2.86609 0.22962 -1.47901 14.9823 -5.67597 -11.5716 -5.39113 8.96721 28.4175 -11.5294 
-4.64209 37.0918 12.2457 1.54721 0.911552 3.59973 2.24038 -3.04581 -1.9687 0.103444 61.4105 -1.44755 -4.10113 10.7802 -6.84814 6.45797 -30.8334 17.0116 0.014727 53.5385 1.50785 4.213 -23.493 -10.0352 -4.24144 7.55561 -2.74032 6.16825 -11.0255 -0.554777 10 -6.20208e-014 1.16786e-014 -5.22186 3.9657 -27.9083 12.3332 -19.7503 3.69951 0.00533474 -0.0760554 -1.01606 -10 -6.0033e-014 -9.0447e-015 2.91843 10.286 23.2359 -9.65442 -15.6896 -2.91853 0.21679 -1.44158 14.5933 -5.79395 -11.1255 -5.54847 9.83645 27.7067 -12.0418 
-4.81862 37.0783 13.4347 -0.702083 0.890298 5.16852 5.41664 -10.0102 -2.08266 0.204345 70.1704 -2.17214 -2.89281 19.0591 -6.93321 8.44196 -29.0447 15.6861 0.00905422 53.821 0.845185 4.51699 -25.4989 -9.48445 -1.40241 7.98889 -3.54678 6.6397 -10.6828 -0.62277 10 -6.20208e-014 1.16786e-014 -4.94491 4.22673 -28.4771 11.7286 -18.8895 3.43157 0.00508443 -0.0842748 -1.12585 -10 -6.0033e-014 -9.0447e-015 2.55093 8.80212 23.3942 -9.91292 -16.0722 -3.02833 0.191311 -1.34891 13.6334 -5.77497 -11.1158 -5.81563 9.97115 27.795 -12.6331 
-4.93194 36.8796 14.5194 -1.69009 0.830329 5.14023 7.09551 -15.3136 -1.2761 0.393448 77.2522 -2.78478 -5.62947 15.4321 -1.31319 9.4084 -27.9613 14.6336 0.0068493 54.7647 0.748764 4.83713 -25.9827 -8.46053 -0.236291 8.56391 -2.81523 6.73798 -10.989 -0.3511 10 -6.20208e-014 1.16786e-014 -4.70873 4.38367 -29.3098 11.4217 -18.4477 3.29856 0.00246458 -0.12491 -1.66863 -10 -6.0033e-014 -9.0447e-015 2.11556 7.29835 23.9761 -10.466 -16.8829 -3.26814 0.158093 -1.21779 12.2826 -5.83647 -10.7395 -5.96075 10.2374 27.7016 -13.023 
-5.05128 36.9299 15.8243 -2.51416 0.432481 4.70638 8.7973 -19.9724 0.553589 0.7369 82.228 -3.14966 -4.86073 3.78623 -6.30443 10.4141 -25.1629 14.3056 0.00389279 54.2063 0.73588 4.76201 -27.8949 -7.61555 0.641551 9.0106 -1.83785 6.63973 -11.2152 -0.0349297 10 -6.20208e-014 1.16786e-014 -4.66721 4.82587 -29.2842 11.1661 -18.0771 3.18932 -0.00213671 -0.170829 -2.28201 -10 -6.0033e-014 -9.0447e-015 1.50486 5.7814 25.6412 -11.0203 -17.6843 -3.51501 0.100662 -0.951731 9.56448 -6.06247 -10.8427 -6.15557 10.7037 28.0389 -13.514 
-5.11795 37.0214 17.1166 -2.84163 0.548156 4.17689 9.57988 -24.1231 2.08853 0.888886 83.3669 -3.41558 -5.85881 -6.04834 -5.97914 10.7078 -22.5954 13.8955 0.00178111 53.1174 0.82561 4.69341 -29.0902 -6.9282 0.899002 8.60157 -0.790574 6.26942 -11.3945 0.24718 10 -6.20208e-014 1.16786e-014 -4.53788 5.38939 -29.7201 11.5198 -18.5894 3.34084 0.000398916 0.0330507 0.441664 -10 -6.0033e-014 -9.0447e-015 1.17623 4.35805 26.3256 -11.5009 -18.3704 -3.73431 0.077011 -0.780691 7.8307 -6.19376 -10.1556 -6.32341 11.1283 27.9526 -14.0284 
